<svg version="1" xmlns="http://www.w3.org/2000/svg" width="693.333" height="693.333" viewBox="0 0 520.000000 520.000000"><path d="M0 260v260h520V0H0v260zM83 45v21.1l3.8-3c9-7.2 21.3-9.7 32.7-6.6 9 2.4 14.1 6.3 17.3 13.3l2.7 5.7.3 34.7.3 34.8h-15l-.3-32.3c-.3-30.3-.4-32.4-2.4-36.2-3.9-7.5-14.4-10.5-24.3-7-6.3 2.2-9.7 5-12.3 10.3-2.2 4.5-2.3 5.8-2.8 34.7l-.5 30h-15l-.3-60.3L67 24h16v21zm-46-3v15h16.1l-.3 5.7-.3 5.8-7.8.3-7.9.3.4 29.5.3 29.6 2.4 1.9c1.6 1.3 3.9 1.9 7.6 1.9h5.2l1 6.2c.6 3.5.9 6.5.7 6.8-.3.2-4.6.4-9.7.5-7.3 0-10-.4-13.1-2-8.6-4.4-9.5-8.7-9.6-48.2V69.1l-5.2-.3-5.3-.3-.3-5.8-.3-5.7H22V35.5l6.8-4.2c3.7-2.3 7-4.2 7.5-4.2.4-.1.7 6.6.7 14.9zm171 14c14.8 2.8 25.7 12.7 30.2 27.5 1.2 4 2.7 18.5 2.1 20.2-.4 1-7.3 1.3-33.5 1.3h-33.1l.7 3.7c2.2 13.6 9.3 22.5 19.6 24.8 12.8 2.8 23.5-2.2 28.9-13.3l1.6-3.4 7.5.6c4.1.4 7.6.9 7.8 1.1 1.1 1.1-6.1 13.8-9.8 17.4-11.7 11.4-32.9 14-49.5 6.2-16.5-7.8-24.6-26.3-21.5-49.2 1.4-10.4 4.5-17.7 10-24.1 5.4-6.4 10.9-9.8 19-12 7.6-2 12.7-2.2 20-.8zm161 203v61h-14v-11.5l-3 3.7c-11 13.3-37.2 11.5-49.3-3.5-11.5-14.1-14.1-36.1-6.7-56 8.2-21.8 36.7-29.8 53.8-15.1l4.2 3.6V198h15v61zm-177.5-27.6c21.1 5.6 31.9 23.2 30.2 49.1-1.1 16.1-6.3 26.4-17 33.6-7.7 5.1-14.8 7.1-25 7-12.9 0-22.7-4-30-12-6.4-7.1-9.2-14-10.7-26.1-3.6-31.2 12.7-52.6 40.5-52.9 3.9 0 9.3.5 12 1.3zm92.8 1.2c4.1 1.9 4.1 1.8.7 10.4-1 2.5-2.4 4.4-3.2 4.3-.7-.1-3.2-.7-5.6-1.3-6-1.4-11.2.1-15.1 4.5-5 5.7-5.4 8.6-6 40l-.6 29-7.2.3-7.3.3V232h12.9l.3 6.2.3 6.3 3.7-5.2c5.1-7.1 9.6-9.5 17.3-8.9 3.3.2 7.7 1.2 9.8 2.2zm149.9-1.5c11.5 2.5 19.5 8.9 22.2 17.9.7 2.5 1 4.8.7 5.2-.3.3-3.5.9-7.1 1.3l-6.5.6-2.5-4.7c-3.7-7.1-7.5-8.9-18-8.8-10.3.1-15.4 2.1-17.8 7.1-1.9 4-.9 7.7 2.9 10.5 1.4 1.1 10 4.1 19.1 6.7 9 2.6 18.5 5.8 21.1 7 18.5 9 16.3 34.5-3.9 43.8-10 4.5-29.1 4.6-39.4.2-6.5-2.8-13.2-10-15.9-17.2-1.1-3.2-2.1-6.2-2.1-6.6 0-.5 2.4-1.2 5.3-1.5 2.8-.4 6.1-.9 7.3-1.2 1.7-.4 2.3.2 3.2 3.5 2.9 9.4 10.2 14 22.2 14.1 12.2 0 20.2-5.3 20.2-13.5 0-6.7-3.7-8.9-24.7-14.5-18.2-4.9-24.7-8.5-28.5-16.1-2.4-4.7-2.6-13.4-.4-18.7 1.7-4.3 6.7-9.7 10.6-11.8 7.7-4 21.7-5.5 32-3.3zM34 266c5.2 18.7 9.7 33.7 10 33.2.4-.4 2.8-8.8 5.4-18.7 2.6-9.9 6.6-24.8 8.9-33l4.3-15h15.8l8.6 32.2c4.7 17.7 8.8 32.4 9.1 32.7.3.3 5-14.3 10.4-32.4l10-33h7.2c4 0 7.3.1 7.3.3 0 .1-6.2 19.8-13.8 43.7l-13.8 43.5H87.6L83.3 304c-2.3-8.5-6.1-22.9-8.4-32-2.3-9.1-4.5-16.9-4.9-17.3-.4-.4-1.9 3.9-3.4 9.5-1.4 5.7-5.4 20.5-8.8 33L51.7 320H36.2l-1.1-3.3C31.2 304.4 9 232.8 9 232.4c0-.2 3.5-.4 7.8-.4h7.7l9.5 34zm75.1 106.8c.4.4.2 3.4-.4 6.6l-1.2 6-6.7-.3c-7.2-.3-12 1.4-13.3 4.6-.4 1-.9 5.3-1.2 9.5l-.6 7.8H103v11H86v76H71v-76H58v-11h12.8l.4-10.3c.6-14.9 3.7-20.2 14-23.9 4.3-1.5 7-1.8 14.3-1.3 4.9.3 9.2.8 9.6 1.3zm116.9 8.7v8.5h-15v-17h15v8.5zm86 13c0 11.8.3 21.5.6 21.5s2.4-1.6 4.7-3.5c6.6-5.7 13.6-7.8 24.2-7.3 10.5.5 17.3 3.4 22.2 9.3 5.4 6.4 5.6 8.2 6 45.2l.5 34.3H355v-29.8c0-30.5-.5-35.3-4.1-40.3-5.9-8.4-23.9-7.9-32.1.7-5.5 5.9-6 9.3-6.6 40.6l-.4 28.8H297V373h15v21.5zm-37.2 12.3l7.2.3V418h-15v27.9c0 17.3.4 29 1.1 30.9 1.2 3.5 5.1 5.3 10.9 4.9l3.4-.2 1.2 6.2c1.3 7.4 1.4 7.4-9.9 7.4-10.1 0-16.1-2.7-19.1-8.6-2-3.7-2.1-6.1-2.4-36.3l-.4-32.2H241v-11h10.9l.3-11.2.3-11.1 7-4.2 7-4.1.5 15.1.5 15 7.3.3zm-104 .4c7.4 2.7 11.8 6.5 14.3 12.1 2.1 4.9 2.3 6.9 2.9 35.7.5 25.7.8 31.1 2.3 34.4.9 2.1 1.7 4 1.7 4.2 0 .2-3.6.4-8 .4h-7.9l-1-3.8c-.6-2-1.1-4.3-1.1-5 0-1.7-.7-1.5-4.3 1.2-1.8 1.4-6.4 4-10.2 5.8-6.7 3.2-7.5 3.3-19 3.3s-12.2-.1-17.4-3c-13.1-7.3-16.8-23.4-8-35.5 5.5-7.6 12.8-10.7 32.4-13.5 6.1-.9 14-2.3 17.8-3.1l6.7-1.6v-5c0-10.5-5.6-15.5-18.3-16.5-13.7-1-20.8 2.6-25 12.8l-1.5 3.5-7.1-.9c-3.9-.5-7.1-1.3-7.1-1.7 0-.4.7-2.7 1.5-5.1 3.6-10 9.9-15.5 21.9-19.1 7.7-2.2 27.8-2 34.4.4zm55.2 43.3V494h-15v-87h15v43.5zm-185 35v8.5H24v-17h17v8.5z"/><path d="M193.5 68.1c-7.7 1.8-14.2 8-17.1 16.1-2.9 8.3-4.5 7.8 23.1 7.8H224v-2.3c0-9.1-8.7-19.6-17.9-21.6-5.9-1.3-7.1-1.3-12.6 0zM324.6 243.2c-6.1 1.6-13.1 9.2-15.2 16.4-2.4 8.1-2.4 24 0 31.6 7.1 22.1 33.7 24 43.3 3 1.4-2.9 1.7-6.7 1.8-17.7 0-12.7-.2-14.5-2.4-19.3-3-6.6-9.6-12.6-15.6-14.1-5.1-1.3-6.6-1.3-11.9.1zM173.7 243c-6.7 1.7-12.4 6.7-16 13.9-3 6.2-3.2 7.1-3.2 18.1 0 13.2 1.6 19.2 6.7 25.4 6.1 7.5 19.4 10.9 28.2 7.2 5-2.1 11.1-8.1 13.7-13.4 3.1-6.5 3.9-24.2 1.5-32.5-4.1-14-17.4-22-30.9-18.7zM166.5 452.1c-1.6.5-9 2-16.3 3.4-16.6 3.1-19.5 4.4-22.2 10.1-4.6 9.5 2.4 18.5 14.4 18.8 12.7.2 21.4-3.8 26.2-12 2.3-3.9 2.9-6.2 3.2-13.1.5-9 .5-9-5.3-7.2z"/></svg>